# This file uses centimeters as units for non-parametric coordinates.

mtllib floor.mtl
g default
v -12.322301 0.000000 37.038399
v 12.499132 0.000000 37.038399
v -12.322301 0.000000 12.216967
v 12.499132 0.000000 12.216967
vt 1.000000 0.000000
vt 0.000000 1.000000
vt 0.000000 0.000000
vt 1.000000 1.000000
vn 0.000000 1.000000 0.000000
vn 0.000000 1.000000 0.000000
vn 0.000000 1.000000 0.000000
vn 0.000000 1.000000 0.000000
vn 0.000000 1.000000 0.000000
vn 0.000000 1.000000 0.000000
s off
g pasted__pasted__Mesh pasted__group group1
usemtl initialShadingGroup
f 2/1/1 3/2/2 1/3/3
f 2/1/4 4/4/5 3/2/6
g default
v -36.947446 0.000000 12.410716
v -12.126014 0.000000 12.410716
v -36.947446 0.000000 -12.410716
v -12.126014 0.000000 -12.410716
vt 1.000000 0.000000
vt 0.000000 1.000000
vt 0.000000 0.000000
vt 1.000000 1.000000
vn 0.000000 1.000000 0.000000
vn 0.000000 1.000000 0.000000
vn 0.000000 1.000000 0.000000
vn 0.000000 1.000000 0.000000
vn 0.000000 1.000000 0.000000
vn 0.000000 1.000000 0.000000
s off
g pasted__Mesh group
usemtl initialShadingGroup
f 6/5/7 7/6/8 5/7/9
f 6/5/10 8/8/11 7/6/12
g default
v -12.410716 0.000000 12.410716
v 12.410716 0.000000 12.410716
v -12.410716 0.000000 -12.410716
v 12.410716 0.000000 -12.410716
vt 1.000000 0.000000
vt 0.000000 1.000000
vt 0.000000 0.000000
vt 1.000000 1.000000
vn 0.000000 1.000000 0.000000
vn 0.000000 1.000000 0.000000
vn 0.000000 1.000000 0.000000
vn 0.000000 1.000000 0.000000
vn 0.000000 1.000000 0.000000
vn 0.000000 1.000000 0.000000
s off
g Mesh
usemtl initialShadingGroup
f 10/9/13 11/10/14 9/11/15
f 10/9/16 12/12/17 11/10/18
