v -3.433492 0.415878 -1.067591
v -3.389414 0.415878 -1.067591
v -3.389414 0.000000 -1.067591
v -3.433492 0.000000 -1.067591
v -2.938381 0.415878 -1.067591
v -2.894303 0.415878 -1.067591
v -2.894303 0.000000 -1.067591
v -2.938381 0.000000 -1.067591
v -2.892101 0.415878 -1.064848
v -2.892101 0.415878 -0.550423
v -2.892101 0.000000 -0.550423
v -2.892101 0.000000 -1.064848
v -3.387212 0.467809 -0.550423
v -3.387212 0.467809 -1.064848
v -3.433492 0.467809 -1.064848
v -3.433492 0.467809 -0.550423
v -2.940583 0.465607 -0.547680
v -3.387212 0.465607 -0.547680
v -3.387212 0.418080 -0.547680
v -2.940583 0.418080 -0.547680
v -2.894303 0.467809 -0.550423
v -2.894303 0.467809 -1.064848
v -2.940583 0.467809 -1.064848
v -2.940583 0.467809 -0.550423
v -3.435693 0.465607 -0.547680
v -3.435693 0.465607 -1.064848
v -3.435693 0.415878 -1.064848
v -3.435693 0.415878 -0.547680
v -2.894303 0.415878 -0.547680
v -2.938381 0.415878 -0.547680
v -2.938381 0.000000 -0.547680
v -2.894303 0.000000 -0.547680
v -3.389414 0.415878 -0.547680
v -3.435693 0.415878 -0.547680
v -3.435693 0.000000 -0.547680
v -3.389414 0.000000 -0.547680
v -3.387212 0.415878 -1.064848
v -3.387212 0.415878 -0.550423
v -3.387212 0.000000 -0.550423
v -3.387212 0.000000 -1.064848
v -2.940583 0.415878 -0.550423
v -2.940583 0.415878 -1.064848
v -2.940583 0.000000 -1.064848
v -2.940583 0.000000 -0.550423
v -3.387212 0.465607 -1.067591
v -2.940583 0.465607 -1.067591
v -2.940583 0.418080 -1.067591
v -3.387212 0.418080 -1.067591
v -3.387212 0.415878 -0.550423
v -3.387212 0.415878 -1.064848
v -2.940583 0.415878 -1.064848
v -2.940583 0.415878 -0.550423
v -2.938381 0.000000 -0.547680
v -2.940583 0.000000 -0.550423
v -2.940583 0.000000 -1.064848
v -2.938381 0.000000 -1.067591
v -2.894303 0.000000 -1.067591
v -2.892101 0.000000 -1.064848
v -2.892101 0.000000 -0.550423
v -2.894303 0.000000 -0.547680
v -3.435693 0.000000 -0.547680
v -3.435693 0.000000 -1.064848
v -3.433492 0.000000 -1.067591
v -3.389414 0.000000 -1.067591
v -3.387212 0.000000 -1.064848
v -3.387212 0.000000 -0.550423
v -3.389414 0.000000 -0.547680
v -2.894303 0.465607 -0.547680
v -3.435693 0.465607 -0.547680
v -2.894303 0.465607 -1.067591
v -3.435693 0.000000 -1.064848
v -3.435693 0.000000 -0.547680
v -2.892101 0.465607 -1.064848
v -2.892101 0.465607 -0.550423
v -3.435693 0.465607 -1.064848
v -3.433492 0.467809 -1.064848
v -3.433492 0.465607 -1.067591
v -2.894303 0.465607 -1.067591
v -2.894303 0.467809 -1.064848
v -2.892101 0.465607 -1.064848
v -2.892101 0.465607 -0.550423
v -2.894303 0.467809 -0.550423
v -2.894303 0.465607 -0.547680
v -2.940583 0.415878 -1.064848
v -2.940583 0.418080 -1.067591
v -2.938381 0.415878 -1.067591
v -3.387212 0.418080 -1.067591
v -3.387212 0.415878 -1.064848
v -3.389414 0.415878 -1.067591
v -3.387212 0.415878 -0.550423
v -3.387212 0.418080 -0.547680
v -3.389414 0.415878 -0.547680
v -2.940583 0.418080 -0.547680
v -2.940583 0.415878 -0.550423
v -2.938381 0.415878 -0.547680
v -3.433492 0.467809 -0.550423
v -3.433492 0.467809 -1.064848
v -3.435693 0.465607 -1.064848
v -3.435693 0.465607 -0.547680
v -3.433492 0.465607 -1.067591
v -3.433492 0.415878 -1.067591
v -3.435693 0.415878 -1.064848
v -3.435693 0.465607 -1.064848
v -2.940583 0.467809 -1.064848
v -2.894303 0.467809 -1.064848
v -2.894303 0.465607 -1.067591
v -2.940583 0.465607 -1.067591
v -2.892101 0.465607 -1.064848
v -2.892101 0.415878 -1.064848
v -2.894303 0.415878 -1.067591
v -2.894303 0.465607 -1.067591
v -2.894303 0.467809 -1.064848
v -2.894303 0.467809 -0.550423
v -2.892101 0.465607 -0.550423
v -2.892101 0.465607 -1.064848
v -2.894303 0.465607 -0.547680
v -2.894303 0.415878 -0.547680
v -2.892101 0.415878 -0.550423
v -2.892101 0.465607 -0.550423
v -3.387212 0.467809 -0.550423
v -3.433492 0.467809 -0.550423
v -3.435693 0.465607 -0.547680
v -3.387212 0.465607 -0.547680
v -3.387212 0.465607 -1.067591
v -3.433492 0.465607 -1.067591
v -3.433492 0.467809 -1.064848
v -3.387212 0.467809 -1.064848
v -3.387212 0.418080 -1.067591
v -2.940583 0.418080 -1.067591
v -2.940583 0.415878 -1.064848
v -3.387212 0.415878 -1.064848
v -2.940583 0.465607 -0.547680
v -2.894303 0.465607 -0.547680
v -2.894303 0.467809 -0.550423
v -2.940583 0.467809 -0.550423
v -2.940583 0.465607 -0.547680
v -2.940583 0.467809 -0.550423
v -2.940583 0.418080 -0.547680
v -3.387212 0.418080 -0.547680
v -3.387212 0.415878 -0.550423
v -2.940583 0.415878 -0.550423
v -2.938381 0.000000 -0.547680
v -2.938381 0.415878 -0.547680
v -2.940583 0.415878 -0.550423
v -2.940583 0.000000 -0.550423
v -2.938381 0.415878 -1.067591
v -2.938381 0.000000 -1.067591
v -2.940583 0.000000 -1.064848
v -2.940583 0.415878 -1.064848
v -3.389414 0.000000 -1.067591
v -3.389414 0.415878 -1.067591
v -3.387212 0.415878 -1.064848
v -3.387212 0.000000 -1.064848
v -3.389414 0.415878 -0.547680
v -3.389414 0.000000 -0.547680
v -3.387212 0.000000 -0.550423
v -3.387212 0.415878 -0.550423
v -2.892101 0.000000 -1.064848
v -2.894303 0.000000 -1.067591
v -2.892101 0.000000 -0.550423
v -2.892101 0.415878 -0.550423
v -2.894303 0.415878 -0.547680
v -2.894303 0.000000 -0.547680
v -3.435693 0.000000 -1.064848
v -3.433492 0.000000 -1.067591
v -3.433492 0.465607 -1.067591
vn 0.000000 0.000000 -1.000000
vn 0.000000 0.000000 -1.000000
vn 0.000000 0.000000 -1.000000
vn 0.000000 0.000000 -1.000000
vn 0.000000 0.000000 -1.000000
vn 0.000000 0.000000 -1.000000
vn 0.000000 0.000000 -1.000000
vn 0.000000 0.000000 -1.000000
vn 1.000000 0.000000 0.000000
vn 1.000000 0.000000 0.000000
vn 1.000000 0.000000 0.000000
vn 1.000000 0.000000 0.000000
vn 0.000000 1.000000 0.000000
vn 0.000000 1.000000 0.000000
vn 0.000000 1.000000 0.000000
vn 0.000000 1.000000 0.000000
vn 0.000000 0.000000 1.000000
vn 0.000000 0.000000 1.000000
vn 0.000000 0.000000 1.000000
vn 0.000000 0.000000 1.000000
vn 0.000000 1.000000 0.000000
vn 0.000000 1.000000 0.000000
vn 0.000000 1.000000 0.000000
vn 0.000000 1.000000 0.000000
vn -1.000000 0.000000 0.000000
vn -1.000000 0.000000 0.000000
vn -1.000000 0.000000 0.000000
vn -1.000000 0.000000 0.000000
vn 0.000000 0.000000 1.000000
vn 0.000000 0.000000 1.000000
vn 0.000000 0.000000 1.000000
vn 0.000000 0.000000 1.000000
vn 0.000000 0.000000 1.000000
vn 0.000000 0.000000 1.000000
vn 0.000000 0.000000 1.000000
vn 0.000000 0.000000 1.000000
vn 1.000000 0.000000 0.000000
vn 1.000000 0.000000 0.000000
vn 1.000000 0.000000 0.000000
vn 1.000000 0.000000 0.000000
vn -1.000000 0.000000 0.000000
vn -1.000000 0.000000 0.000000
vn -1.000000 0.000000 0.000000
vn -1.000000 0.000000 0.000000
vn 0.000000 0.000000 -1.000000
vn 0.000000 0.000000 -1.000000
vn 0.000000 0.000000 -1.000000
vn 0.000000 0.000000 -1.000000
vn 0.000000 -1.000000 0.000000
vn 0.000000 -1.000000 0.000000
vn 0.000000 -1.000000 0.000000
vn 0.000000 -1.000000 0.000000
vn 0.000000 -1.000000 0.000000
vn 0.000000 -1.000000 0.000000
vn 0.000000 -1.000000 0.000000
vn 0.000000 -1.000000 0.000000
vn 0.000000 -1.000000 0.000000
vn 0.000000 -1.000000 0.000000
vn 0.000000 -1.000000 0.000000
vn 0.000000 -1.000000 0.000000
vn 0.000000 -1.000000 0.000000
vn 0.000000 -1.000000 0.000000
vn 0.000000 -1.000000 0.000000
vn 0.000000 -1.000000 0.000000
vn 0.000000 -1.000000 0.000000
vn 0.000000 -1.000000 0.000000
vn 0.000000 -1.000000 0.000000
vn 0.000000 0.000000 1.000000
vn 0.000000 0.000000 1.000000
vn 0.000000 0.000000 -1.000000
vn -1.000000 0.000000 0.000000
vn -1.000000 0.000000 0.000000
vn 1.000000 0.000000 0.000000
vn 1.000000 0.000000 0.000000
vn -0.615000 0.615000 -0.493600
vn -0.615000 0.615000 -0.493600
vn -0.615000 0.615000 -0.493600
vn 0.615000 0.614900 -0.493600
vn 0.615000 0.614900 -0.493600
vn 0.615000 0.614900 -0.493600
vn 0.615000 0.615000 0.493600
vn 0.615000 0.615000 0.493600
vn 0.615000 0.615000 0.493600
vn -0.614900 -0.615000 -0.493600
vn -0.614900 -0.615000 -0.493600
vn -0.614900 -0.615000 -0.493600
vn 0.614900 -0.615000 -0.493600
vn 0.614900 -0.615000 -0.493600
vn 0.614900 -0.615000 -0.493600
vn 0.615000 -0.615000 0.493600
vn 0.615000 -0.615000 0.493600
vn 0.615000 -0.615000 0.493600
vn -0.615000 -0.614800 0.493700
vn -0.615000 -0.614800 0.493700
vn -0.615000 -0.614800 0.493700
vn -0.707100 0.707100 0.000000
vn -0.707100 0.707100 0.000000
vn -0.707100 0.707100 0.000000
vn -0.707100 0.707100 0.000000
vn -0.779800 0.000000 -0.626000
vn -0.779800 0.000000 -0.626000
vn -0.779800 0.000000 -0.626000
vn -0.779800 0.000000 -0.626000
vn 0.000000 0.779900 -0.626000
vn 0.000000 0.779900 -0.626000
vn 0.000000 0.779900 -0.626000
vn 0.000000 0.779900 -0.626000
vn 0.779800 0.000000 -0.626000
vn 0.779800 0.000000 -0.626000
vn 0.779800 0.000000 -0.626000
vn 0.779800 0.000000 -0.626000
vn 0.707100 0.707100 0.000000
vn 0.707100 0.707100 0.000000
vn 0.707100 0.707100 0.000000
vn 0.707100 0.707100 0.000000
vn 0.779900 0.000000 0.626000
vn 0.779900 0.000000 0.626000
vn 0.779900 0.000000 0.626000
vn 0.779900 0.000000 0.626000
vn 0.000000 0.779900 0.625900
vn 0.000000 0.779900 0.625900
vn 0.000000 0.779900 0.625900
vn 0.000000 0.779900 0.625900
vn 0.000000 0.779900 -0.626000
vn 0.000000 0.779900 -0.626000
vn 0.000000 0.779900 -0.626000
vn 0.000000 0.779900 -0.626000
vn 0.000000 -0.779800 -0.626000
vn 0.000000 -0.779800 -0.626000
vn 0.000000 -0.779800 -0.626000
vn 0.000000 -0.779800 -0.626000
vn 0.000000 0.779900 0.626000
vn 0.000000 0.779900 0.626000
vn 0.000000 0.779900 0.626000
vn 0.000000 0.779900 0.626000
vn 0.000000 0.779900 0.625900
vn 0.000000 0.779900 0.625900
vn 0.000000 -0.779900 0.626000
vn 0.000000 -0.779900 0.626000
vn 0.000000 -0.779900 0.626000
vn 0.000000 -0.779900 0.626000
vn -0.779900 0.000000 0.625900
vn -0.779900 0.000000 0.625900
vn -0.779900 0.000000 0.625900
vn -0.779900 0.000000 0.625900
vn -0.779800 0.000000 -0.626000
vn -0.779800 0.000000 -0.626000
vn -0.779800 0.000000 -0.626000
vn -0.779800 0.000000 -0.626000
vn 0.779800 0.000000 -0.626000
vn 0.779800 0.000000 -0.626000
vn 0.779800 0.000000 -0.626000
vn 0.779800 0.000000 -0.626000
vn 0.779900 0.000000 0.625900
vn 0.779900 0.000000 0.625900
vn 0.779900 0.000000 0.625900
vn 0.779900 0.000000 0.625900
vn 0.779800 0.000000 -0.626000
vn 0.779800 0.000000 -0.626000
vn 0.779900 0.000000 0.625900
vn 0.779900 0.000000 0.625900
vn 0.779900 0.000000 0.625900
vn 0.779900 0.000000 0.625900
vn -0.779800 0.000000 -0.626000
vn -0.779800 0.000000 -0.626000
vn 0.000000 0.000000 -1.000000
vt 0.000000 0.000000
vt 0.000000 0.000000
vt 0.000000 0.000000
vt 0.000000 0.000000
vt 0.000000 0.000000
vt 0.000000 0.000000
vt 0.000000 0.000000
vt 0.000000 0.000000
vt 0.000000 0.000000
vt 0.000000 0.000000
vt 0.000000 0.000000
vt 0.000000 0.000000
vt 0.000000 0.000000
vt 0.000000 0.000000
vt 0.000000 0.000000
vt 0.000000 0.000000
vt 0.000000 0.000000
vt 0.000000 0.000000
vt 0.000000 0.000000
vt 0.000000 0.000000
vt 0.000000 0.000000
vt 0.000000 0.000000
vt 0.000000 0.000000
vt 0.000000 0.000000
vt 0.000000 0.000000
vt 0.000000 0.000000
vt 0.000000 0.000000
vt 0.000000 0.000000
vt 0.000000 0.000000
vt 0.000000 0.000000
vt 0.000000 0.000000
vt 0.000000 0.000000
vt 0.000000 0.000000
vt 0.000000 0.000000
vt 0.000000 0.000000
vt 0.000000 0.000000
vt 0.000000 0.000000
vt 0.000000 0.000000
vt 0.000000 0.000000
vt 0.000000 0.000000
vt 0.000000 0.000000
vt 0.000000 0.000000
vt 0.000000 0.000000
vt 0.000000 0.000000
vt 0.000000 0.000000
vt 0.000000 0.000000
vt 0.000000 0.000000
vt 0.000000 0.000000
vt 0.000000 0.000000
vt 0.000000 0.000000
vt 0.000000 0.000000
vt 0.000000 0.000000
vt 0.000000 0.000000
vt 0.000000 0.000000
vt 0.000000 0.000000
vt 0.000000 0.000000
vt 0.000000 0.000000
vt 0.000000 0.000000
vt 0.000000 0.000000
vt 0.000000 0.000000
vt 0.000000 0.000000
vt 0.000000 0.000000
vt 0.000000 0.000000
vt 0.000000 0.000000
vt 0.000000 0.000000
vt 0.000000 0.000000
vt 0.000000 0.000000
vt 0.000000 0.000000
vt 0.000000 0.000000
vt 0.000000 0.000000
vt 0.000000 0.000000
vt 0.000000 0.000000
vt 0.000000 0.000000
vt 0.000000 0.000000
vt 0.000000 0.000000
vt 0.000000 0.000000
vt 0.000000 0.000000
vt 0.000000 0.000000
vt 0.000000 0.000000
vt 0.000000 0.000000
vt 0.000000 0.000000
vt 0.000000 0.000000
vt 0.000000 0.000000
vt 0.000000 0.000000
vt 0.000000 0.000000
vt 0.000000 0.000000
vt 0.000000 0.000000
vt 0.000000 0.000000
vt 0.000000 0.000000
vt 0.000000 0.000000
vt 0.000000 0.000000
vt 0.000000 0.000000
vt 0.000000 0.000000
vt 0.000000 0.000000
vt 0.000000 0.000000
vt 0.000000 0.000000
vt 0.000000 0.000000
vt 0.000000 0.000000
vt 0.000000 0.000000
vt 0.000000 0.000000
vt 0.000000 0.000000
vt 0.000000 0.000000
vt 0.000000 0.000000
vt 0.000000 0.000000
vt 0.000000 0.000000
vt 0.000000 0.000000
vt 0.000000 0.000000
vt 0.000000 0.000000
vt 0.000000 0.000000
vt 0.000000 0.000000
vt 0.000000 0.000000
vt 0.000000 0.000000
vt 0.000000 0.000000
vt 0.000000 0.000000
vt 0.000000 0.000000
vt 0.000000 0.000000
vt 0.000000 0.000000
vt 0.000000 0.000000
vt 0.000000 0.000000
vt 0.000000 0.000000
vt 0.000000 0.000000
vt 0.000000 0.000000
vt 0.000000 0.000000
vt 0.000000 0.000000
vt 0.000000 0.000000
vt 0.000000 0.000000
vt 0.000000 0.000000
vt 0.000000 0.000000
vt 0.000000 0.000000
vt 0.000000 0.000000
vt 0.000000 0.000000
vt 0.000000 0.000000
vt 0.000000 0.000000
vt 0.000000 0.000000
vt 0.000000 0.000000
vt 0.000000 0.000000
vt 0.000000 0.000000
vt 0.000000 0.000000
vt 0.000000 0.000000
vt 0.000000 0.000000
vt 0.000000 0.000000
vt 0.000000 0.000000
vt 0.000000 0.000000
vt 0.000000 0.000000
vt 0.000000 0.000000
vt 0.000000 0.000000
vt 0.000000 0.000000
vt 0.000000 0.000000
vt 0.000000 0.000000
vt 0.000000 0.000000
vt 0.000000 0.000000
vt 0.000000 0.000000
vt 0.000000 0.000000
vt 0.000000 0.000000
vt 0.000000 0.000000
vt 0.000000 0.000000
vt 0.000000 0.000000
vt 0.000000 0.000000
vt 0.000000 0.000000
vt 0.000000 0.000000
vt 0.000000 0.000000
vt 0.000000 0.000000
vt 0.000000 0.000000
vt 0.000000 0.000000
vt 0.000000 0.000000
vt 0.000000 0.000000
f 1/1/1 2/2/2 3/3/3
f 1/1/1 3/3/3 4/4/4
f 5/5/5 6/6/6 7/7/7
f 5/5/5 7/7/7 8/8/8
f 9/9/9 10/10/10 11/11/11
f 9/9/9 11/11/11 12/12/12
f 13/13/13 14/14/14 15/15/15
f 13/13/13 15/15/15 16/16/16
f 17/17/17 18/18/18 19/19/19
f 17/17/17 19/19/19 20/20/20
f 21/21/21 22/22/22 23/23/23
f 21/21/21 23/23/23 24/24/24
f 25/25/25 26/26/26 27/27/27
f 25/25/25 27/27/27 28/28/28
f 24/24/24 23/23/23 14/14/14
f 24/24/24 14/14/14 13/13/13
f 29/29/29 30/30/30 31/31/31
f 29/29/29 31/31/31 32/32/32
f 33/33/33 34/34/34 35/35/35
f 33/33/33 35/35/35 36/36/36
f 37/37/37 38/38/38 39/39/39
f 37/37/37 39/39/39 40/40/40
f 41/41/41 42/42/42 43/43/43
f 41/41/41 43/43/43 44/44/44
f 45/45/45 46/46/46 47/47/47
f 45/45/45 47/47/47 48/48/48
f 49/49/49 50/50/50 51/51/51
f 49/49/49 51/51/51 52/52/52
f 53/53/53 54/54/54 55/55/55
f 53/53/53 55/55/55 56/56/56
f 53/53/53 56/56/56 57/57/57
f 53/53/53 57/57/57 58/58/58
f 53/53/53 58/58/58 59/59/59
f 53/53/53 59/59/59 60/60/60
f 61/61/61 62/62/62 63/63/63
f 61/61/61 63/63/63 64/64/64
f 61/61/61 64/64/64 65/65/65
f 61/61/61 65/65/65 66/66/66
f 61/61/61 66/66/66 67/67/67
f 68/68/68 17/17/17 20/20/20
f 68/68/68 20/20/20 30/30/30
f 68/68/68 30/30/30 29/29/29
f 18/18/18 69/69/69 34/34/34
f 18/18/18 34/34/34 33/33/33
f 18/18/18 33/33/33 19/19/19
f 46/46/46 70/70/70 6/6/6
f 46/46/46 6/6/6 5/5/5
f 46/46/46 5/5/5 47/47/47
f 28/28/28 27/27/27 71/71/71
f 28/28/28 71/71/71 72/72/72
f 73/73/73 74/74/74 10/10/10
f 73/73/73 10/10/10 9/9/9
f 75/75/75 76/76/76 77/77/77
f 78/78/78 79/79/79 80/80/80
f 81/81/81 82/82/82 83/83/83
f 84/84/84 85/85/85 86/86/86
f 87/87/87 88/88/88 89/89/89
f 90/90/90 91/91/91 92/92/92
f 93/93/93 94/94/94 95/95/95
f 96/96/96 97/97/97 98/98/98
f 96/96/96 98/98/98 99/99/99
f 100/100/100 101/101/101 102/102/102
f 100/100/100 102/102/102 103/103/103
f 104/104/104 105/105/105 106/106/106
f 104/104/104 106/106/106 107/107/107
f 108/108/108 109/109/109 110/110/110
f 108/108/108 110/110/110 111/111/111
f 112/112/112 113/113/113 114/114/114
f 112/112/112 114/114/114 115/115/115
f 116/116/116 117/117/117 118/118/118
f 116/116/116 118/118/118 119/119/119
f 120/120/120 121/121/121 122/122/122
f 120/120/120 122/122/122 123/123/123
f 124/124/124 125/125/125 126/126/126
f 124/124/124 126/126/126 127/127/127
f 107/107/107 124/124/124 127/127/127
f 107/107/107 127/127/127 104/104/104
f 128/128/128 129/129/129 130/130/130
f 128/128/128 130/130/130 131/131/131
f 132/132/132 133/133/133 134/134/134
f 132/132/132 134/134/134 135/135/135
f 123/123/123 136/136/136 137/137/137
f 123/123/123 137/137/137 120/120/120
f 138/138/138 139/139/139 140/140/140
f 138/138/138 140/140/140 141/141/141
f 142/142/142 143/143/143 144/144/144
f 142/142/142 144/144/144 145/145/145
f 146/146/146 147/147/147 148/148/148
f 146/146/146 148/148/148 149/149/149
f 150/150/150 151/151/151 152/152/152
f 150/150/150 152/152/152 153/153/153
f 154/154/154 155/155/155 156/156/156
f 154/154/154 156/156/156 157/157/157
f 109/109/109 158/158/158 159/159/159
f 109/109/109 159/159/159 110/110/110
f 160/160/160 161/161/161 162/162/162
f 160/160/160 162/162/162 163/163/163
f 164/164/164 102/102/102 101/101/101
f 164/164/164 101/101/101 165/165/165
f 166/166/166 45/45/45 48/48/48
f 166/166/166 48/48/48 2/2/2
f 166/166/166 2/2/2 1/1/1
