v -4.630185 0.969095 -0.001562
v -4.630185 0.967976 -0.043446
v -3.568923 0.967976 -0.043446
v -3.568923 0.969095 -0.001562
v -3.566791 2.030989 -0.071865
v -3.566791 2.032109 -0.029982
v -3.566791 0.971226 -0.001619
v -3.566791 0.970106 -0.043503
v -3.568923 2.034239 -0.030039
v -3.568923 2.033119 -0.071922
v -4.630185 2.033119 -0.071922
v -4.630185 2.034239 -0.030039
v -4.630185 2.030932 -0.073996
v -3.568923 2.030932 -0.073996
v -3.568923 0.970049 -0.045633
v -4.630185 0.970049 -0.045633
v -4.632316 0.970106 -0.043503
v -4.630185 0.970049 -0.045633
v -4.630185 0.967976 -0.043446
v -3.568923 0.970049 -0.045633
v -3.566791 0.970106 -0.043503
v -3.568923 0.967976 -0.043446
v -4.632316 2.030989 -0.071865
v -4.630185 2.033119 -0.071922
v -4.630185 2.030932 -0.073996
v -3.568923 2.030932 -0.073996
v -3.568923 2.033119 -0.071922
v -3.566791 2.030989 -0.071865
v -4.630185 2.034239 -0.030039
v -4.630185 2.033119 -0.071922
v -4.632316 2.030989 -0.071865
v -4.632316 2.032109 -0.029982
v -4.630185 2.030932 -0.073996
v -4.630185 0.970049 -0.045633
v -4.632316 0.970106 -0.043503
v -4.632316 2.030989 -0.071865
v -4.630185 0.967976 -0.043446
v -4.630185 0.969095 -0.001562
v -4.632316 0.971226 -0.001619
v -4.632316 0.970106 -0.043503
v -4.630185 2.033119 -0.071922
v -3.568923 2.033119 -0.071922
v -3.568923 2.030932 -0.073996
v -4.630185 2.030932 -0.073996
v -3.566791 2.030989 -0.071865
v -3.566791 0.970106 -0.043503
v -3.568923 0.970049 -0.045633
v -3.568923 2.030932 -0.073996
v -3.568923 0.967976 -0.043446
v -4.630185 0.967976 -0.043446
v -4.630185 0.970049 -0.045633
v -3.568923 0.970049 -0.045633
v -3.568923 2.033119 -0.071922
v -3.568923 2.034239 -0.030039
v -3.566791 2.032109 -0.029982
v -3.566791 2.030989 -0.071865
v -3.568923 0.969095 -0.001562
v -3.568923 0.967976 -0.043446
v -3.566791 0.970106 -0.043503
v -3.566791 0.971226 -0.001619
v -4.632316 2.032109 -0.029982
v -4.632316 2.030989 -0.071865
v -4.632316 0.970106 -0.043503
v -4.632316 0.971226 -0.001619
vn 0.000000 -0.999600 0.026700
vn 0.000000 -0.999600 0.026700
vn 0.000000 -0.999600 0.026700
vn 0.000000 -0.999600 0.026700
vn 1.000000 0.000000 0.000000
vn 1.000000 0.000000 0.000000
vn 1.000000 0.000000 0.000000
vn 1.000000 0.000000 0.000000
vn 0.000000 0.999600 -0.026700
vn 0.000000 0.999600 -0.026700
vn 0.000000 0.999600 -0.026700
vn 0.000000 0.999600 -0.026700
vn 0.000000 -0.026700 -0.999600
vn 0.000000 -0.026700 -0.999600
vn 0.000000 -0.026700 -0.999600
vn 0.000000 -0.026700 -0.999600
vn -0.577400 -0.592500 -0.561700
vn -0.577400 -0.592500 -0.561700
vn -0.577400 -0.592500 -0.561700
vn 0.577300 -0.592600 -0.561700
vn 0.577300 -0.592600 -0.561700
vn 0.577300 -0.592600 -0.561700
vn -0.577200 0.561800 -0.592600
vn -0.577200 0.561800 -0.592600
vn -0.577200 0.561800 -0.592600
vn 0.577200 0.561700 -0.592700
vn 0.577200 0.561700 -0.592700
vn 0.577200 0.561700 -0.592700
vn -0.707100 0.706800 -0.018900
vn -0.707100 0.706800 -0.018900
vn -0.707100 0.706800 -0.018900
vn -0.707100 0.706800 -0.018900
vn -0.707100 -0.018900 -0.706800
vn -0.707100 -0.018900 -0.706800
vn -0.707100 -0.018900 -0.706800
vn -0.707100 -0.018900 -0.706800
vn -0.707100 -0.706900 0.018900
vn -0.707100 -0.706900 0.018900
vn -0.707100 -0.706900 0.018900
vn -0.707100 -0.706900 0.018900
vn 0.000000 0.688000 -0.725800
vn 0.000000 0.688000 -0.725800
vn 0.000000 0.688000 -0.725800
vn 0.000000 0.688000 -0.725800
vn 0.707100 -0.018900 -0.706900
vn 0.707100 -0.018900 -0.706900
vn 0.707100 -0.018900 -0.706900
vn 0.707100 -0.018900 -0.706900
vn 0.000000 -0.725700 -0.688000
vn 0.000000 -0.725700 -0.688000
vn 0.000000 -0.725700 -0.688000
vn 0.000000 -0.725700 -0.688000
vn 0.707100 0.706800 -0.018900
vn 0.707100 0.706800 -0.018900
vn 0.707100 0.706800 -0.018900
vn 0.707100 0.706800 -0.018900
vn 0.707100 -0.706900 0.018900
vn 0.707100 -0.706900 0.018900
vn 0.707100 -0.706900 0.018900
vn 0.707100 -0.706900 0.018900
vn -1.000000 -0.000000 0.000000
vn -1.000000 -0.000000 0.000000
vn -1.000000 -0.000000 0.000000
vn -1.000000 -0.000000 0.000000
vt 0.008447 0.033198
vt 0.044154 0.033198
vt 0.044154 0.966801
vt 0.008447 0.966802
vt 0.952213 0.970550
vt 0.952213 1.007409
vt 0.047786 1.007410
vt 0.047786 0.970551
vt 0.991552 0.966801
vt 0.955846 0.966801
vt 0.955845 0.033198
vt 0.991553 0.033198
vt 0.952213 0.033198
vt 0.952213 0.966801
vt 0.047786 0.966802
vt 0.047786 0.033198
vt 0.047786 0.029449
vt 0.047786 0.031324
vt 0.045970 0.029449
vt 0.047786 0.966802
vt 0.047786 0.968676
vt 0.045970 0.966802
vt 0.952213 0.029449
vt 0.954029 0.029449
vt 0.952213 0.031323
vt 0.952213 0.966801
vt 0.954030 0.966801
vt 0.952213 0.968676
vt 0.991553 0.033198
vt 0.955845 0.033198
vt 0.955845 0.031323
vt 0.991553 0.031323
vt 0.952213 0.033198
vt 0.047786 0.033198
vt 0.047786 0.029449
vt 0.952213 0.029449
vt 0.044154 0.033198
vt 0.008447 0.033198
vt 0.008447 0.031324
vt 0.044154 0.031324
vt 0.955845 0.033198
vt 0.955846 0.966801
vt 0.952213 0.966801
vt 0.952213 0.033198
vt 0.952213 0.970550
vt 0.047786 0.970551
vt 0.047786 0.966802
vt 0.952213 0.966801
vt 0.044154 0.966801
vt 0.044154 0.033198
vt 0.047786 0.033198
vt 0.047786 0.966802
vt 0.955846 0.966801
vt 0.991552 0.966801
vt 0.991552 0.968676
vt 0.955846 0.968676
vt 0.008447 0.966802
vt 0.044154 0.966801
vt 0.044154 0.968676
vt 0.008447 0.968676
vt 0.952213 -0.007410
vt 0.952213 0.029449
vt 0.047786 0.029449
vt 0.047786 -0.007411
f 1/1/1 2/2/2 3/3/3
f 1/1/1 3/3/3 4/4/4
f 5/5/5 6/6/6 7/7/7
f 5/5/5 7/7/7 8/8/8
f 9/9/9 10/10/10 11/11/11
f 9/9/9 11/11/11 12/12/12
f 13/13/13 14/14/14 15/15/15
f 13/13/13 15/15/15 16/16/16
f 17/17/17 18/18/18 19/19/19
f 20/20/20 21/21/21 22/22/22
f 23/23/23 24/24/24 25/25/25
f 26/26/26 27/27/27 28/28/28
f 29/29/29 30/30/30 31/31/31
f 29/29/29 31/31/31 32/32/32
f 33/33/33 34/34/34 35/35/35
f 33/33/33 35/35/35 36/36/36
f 37/37/37 38/38/38 39/39/39
f 37/37/37 39/39/39 40/40/40
f 41/41/41 42/42/42 43/43/43
f 41/41/41 43/43/43 44/44/44
f 45/45/45 46/46/46 47/47/47
f 45/45/45 47/47/47 48/48/48
f 49/49/49 50/50/50 51/51/51
f 49/49/49 51/51/51 52/52/52
f 53/53/53 54/54/54 55/55/55
f 53/53/53 55/55/55 56/56/56
f 57/57/57 58/58/58 59/59/59
f 57/57/57 59/59/59 60/60/60
f 61/61/61 62/62/62 63/63/63
f 61/61/61 63/63/63 64/64/64
